<?xml version="1.0" ?><!DOCTYPE svg  PUBLIC '-//W3C//DTD SVG 1.1//EN'  'http://www.w3.org/Graphics/SVG/1.1/DTD/svg11.dtd'><svg enable-background="new 0 0 32 32" height="32px" id="Layer_1" version="1.1" viewBox="0 0 32 32" width="32px" xml:space="preserve" xmlns="http://www.w3.org/2000/svg" xmlns:xlink="http://www.w3.org/1999/xlink"><g><polyline fill="none" points="   649,137.999 675,137.999 675,155.999 661,155.999  " stroke="#FFFFFF" stroke-linecap="round" stroke-linejoin="round" stroke-miterlimit="10" stroke-width="2"/><polyline fill="none" points="   653,155.999 649,155.999 649,141.999  " stroke="#FFFFFF" stroke-linecap="round" stroke-linejoin="round" stroke-miterlimit="10" stroke-width="2"/><polyline fill="none" points="   661,156 653,162 653,156  " stroke="#FFFFFF" stroke-linecap="round" stroke-linejoin="round" stroke-miterlimit="10" stroke-width="2"/></g><g><path d="M25,13h-1v-3c0-0.552-0.447-1-1-1H4c-0.552,0-1,0.448-1,1s0.448,1,1,1h18v12c0,2.757-2.243,5-5,5h-7c-2.757,0-5-2.243-5-5   v-9c0-0.552-0.448-1-1-1s-1,0.448-1,1v9c0,3.859,3.14,7,7,7h7c3.859,0,7-3.141,7-7v-1h1c2.206,0,4-1.794,4-4v-1   C29,14.794,27.206,13,25,13z M27,18c0,1.103-0.897,2-2,2h-1v-5h1c1.103,0,2,0.897,2,2V18z"/><path d="M9,8c0.552,0,1-0.448,1-1V5c0-0.552-0.448-1-1-1S8,4.448,8,5v2C8,7.552,8.448,8,9,8z"/><path d="M13,8c0.552,0,1-0.448,1-1V3c0-0.552-0.448-1-1-1s-1,0.448-1,1v4C12,7.552,12.448,8,13,8z"/><path d="M17,8c0.553,0,1-0.448,1-1V5c0-0.552-0.447-1-1-1c-0.552,0-1,0.448-1,1v2C16,7.552,16.448,8,17,8z"/></g></svg>