<?xml version="1.0" ?><svg id="icons" viewBox="0 0 512 512" xmlns="http://www.w3.org/2000/svg"><defs><style>.cls-1{stroke-miterlimit:10;}.cls-1,.cls-2{fill:none;stroke:#808285;stroke-width:7px;}.cls-2{stroke-linecap:round;stroke-linejoin:round;}</style></defs><path class="cls-1" d="M382.6,279.11v147.07c0,8.79-7.13,15.93-15.93,15.93H140.33c-8.8,0-15.93-7.14-15.93-15.93V111.82c0-8.56,6.75-15.52,15.21-15.9l20.08-34.78c1.65-2.85,5.77-2.85,7.42,0l20.06,34.75h130l20.06-34.75c1.65-2.85,5.77-2.85,7.42,0l20.06,34.75h1.96c8.8,0,15.93,7.13,15.93,15.93v107.22"/><g><path class="cls-2" d="M463.1,200.95c-5.74,5.58-17.11,3.16-25.39-5.37-8.3-8.55-10.37-19.98-4.63-25.56,.69-.67,1.48-1.23,2.32-1.66,6.13-3.25,15.79-.47,23.09,7.05,7.28,7.5,9.78,17.24,6.35,23.27-.46,.83-1.04,1.6-1.73,2.27Z"/><path class="cls-2" d="M435.4,168.37c-.84,.43-1.63,.99-2.32,1.66l2.02-1.97,.3,.3Z"/><path class="cls-2" d="M465.13,198.99l-2.02,1.97c.69-.67,1.27-1.44,1.73-2.27l.3,.3Z"/><path class="cls-2" d="M463.1,200.95l-98.33,95.46c-16.76-3.76-26.77-14.07-30.02-30.93l98.33-95.46c-5.74,5.58-3.67,17.01,4.63,25.56,8.29,8.54,19.65,10.95,25.39,5.37Z"/><path class="cls-2" d="M364.78,296.41l-62.14,30.31,32.12-61.23c3.26,16.86,13.27,27.17,30.02,30.93Z"/><path class="cls-2" d="M320.17,317.83l-16.87,8.23,8.72-16.62c.88,4.58,3.6,7.38,8.15,8.4Z"/><line class="cls-2" x1="423.25" x2="365.98" y1="209.6" y2="265.2"/><line class="cls-2" x1="416.61" x2="359.34" y1="202.76" y2="258.36"/><line class="cls-2" x1="429.01" x2="371.74" y1="217.31" y2="272.91"/></g><g><path class="cls-1" d="M273.02,387.35c-3.24-5.58-10.21-9.44-18.29-9.44s-15.05,3.86-18.29,9.44c-5.79,2.7-9.44,6.66-9.44,11.07,0,8.14,12.42,14.73,27.73,14.73s27.73-6.6,27.73-14.73c0-4.41-3.66-8.37-9.44-11.07Z"/><ellipse class="cls-1" cx="264.92" cy="357.62" rx="10.92" ry="8.38" transform="translate(-144.17 532.89) rotate(-76.66)"/><ellipse class="cls-1" cx="241.57" cy="357.62" rx="8.38" ry="10.92" transform="translate(-75.99 65.38) rotate(-13.34)"/><ellipse class="cls-1" cx="223.53" cy="375.53" rx="7.36" ry="9.6" transform="translate(-157.82 162.08) rotate(-30)"/><ellipse class="cls-1" cx="283.9" cy="373.04" rx="9.6" ry="7.36" transform="translate(-181.12 432.39) rotate(-60)"/></g><line class="cls-2" x1="176.59" x2="330.84" y1="140.92" y2="140.92"/><line class="cls-2" x1="176.59" x2="330.84" y1="176.97" y2="176.97"/><line class="cls-2" x1="176.59" x2="330.84" y1="213.02" y2="213.02"/><line class="cls-2" x1="176.59" x2="330.84" y1="249.06" y2="249.06"/><line class="cls-2" x1="176.59" x2="293.95" y1="285.11" y2="285.11"/><line class="cls-2" x1="176.59" x2="277.19" y1="321.16" y2="321.16"/></svg>