<?xml version="1.0" standalone="no"?>
<!DOCTYPE svg PUBLIC "-//W3C//DTD SVG 20010904//EN"
 "http://www.w3.org/TR/2001/REC-SVG-20010904/DTD/svg10.dtd">
<svg version="1.0" xmlns="http://www.w3.org/2000/svg"
 width="949.000000pt" height="820.000000pt" viewBox="0 0 949.000000 820.000000"
 preserveAspectRatio="xMidYMid meet">

<g transform="translate(0.000000,820.000000) scale(0.100000,-0.100000)"
fill="#000000" stroke="none">
<path d="M6310 5385 c-8 -9 -8 -15 -2 -15 12 0 26 19 19 26 -2 2 -10 -2 -17
-11z"/>
<path d="M6150 5090 c-10 -6 -7 -10 13 -16 34 -8 46 1 20 14 -11 6 -25 7 -33
2z"/>
<path d="M6135 5050 c3 -5 1 -10 -6 -10 -7 0 -10 -2 -8 -5 3 -2 15 -2 28 2 17
4 19 8 9 14 -18 12 -31 11 -23 -1z"/>
<path d="M6080 5000 c0 -5 5 -10 11 -10 5 0 7 5 4 10 -3 6 -8 10 -11 10 -2 0
-4 -4 -4 -10z"/>
<path d="M3060 4992 c0 -14 84 -72 90 -63 12 20 60 31 82 20 15 -8 19 -8 16 1
-9 29 -188 69 -188 42z"/>
<path d="M5946 4951 c-4 -5 -2 -12 3 -15 5 -4 12 -2 15 3 4 5 2 12 -3 15 -5 4
-12 2 -15 -3z"/>
<path d="M6058 4933 c7 -3 16 -2 19 1 4 3 -2 6 -13 5 -11 0 -14 -3 -6 -6z"/>
<path d="M5938 4893 c7 -3 16 -2 19 1 4 3 -2 6 -13 5 -11 0 -14 -3 -6 -6z"/>
<path d="M5076 4881 c-4 -5 -2 -19 2 -31 7 -19 9 -20 21 -6 7 9 11 23 7 31 -6
17 -22 20 -30 6z"/>
<path d="M4543 4860 c-3 -10 -14 -22 -24 -25 -10 -4 -19 -13 -19 -21 0 -8 -5
-14 -11 -14 -6 0 -9 -7 -6 -14 4 -11 1 -13 -10 -9 -14 5 -14 3 1 -19 9 -14 16
-30 15 -34 -3 -18 14 -74 23 -74 5 0 7 -4 4 -9 -3 -5 1 -11 9 -15 8 -3 18 -24
21 -46 4 -23 13 -44 20 -47 8 -3 14 -13 14 -23 0 -11 5 -22 10 -25 6 -3 10
-21 10 -38 1 -27 2 -29 11 -14 7 13 7 27 0 49 -6 17 -11 41 -11 54 0 16 -5 22
-14 18 -16 -6 -36 38 -36 79 0 15 0 39 0 54 0 15 5 30 10 33 6 4 8 14 4 24 -4
11 0 22 12 31 11 7 16 17 12 21 -4 4 -3 13 4 21 9 11 7 15 -10 20 -20 5 -26
15 -23 36 2 16 -11 6 -16 -13z"/>
<path d="M4461 4844 c-6 -15 -9 -29 -6 -32 3 -3 5 0 5 7 0 6 8 11 18 9 11 -2
18 4 20 20 5 31 -22 28 -37 -4z"/>
<path d="M4194 4824 c-21 -17 -24 -24 -12 -24 20 0 32 -32 23 -60 -7 -21 -6
-21 25 -1 17 10 38 28 47 40 14 20 13 24 -2 41 -25 28 -49 29 -81 4z"/>
<path d="M4790 4836 c0 -8 5 -18 10 -21 6 -3 10 1 10 9 0 8 -4 18 -10 21 -5 3
-10 -1 -10 -9z"/>
<path d="M5825 4840 c-3 -5 -1 -10 4 -10 6 0 11 5 11 10 0 6 -2 10 -4 10 -3 0
-8 -4 -11 -10z"/>
<path d="M4637 4825 c-4 -8 -2 -17 4 -21 6 -3 1 -13 -11 -24 -17 -15 -20 -25
-15 -52 4 -18 1 -46 -4 -61 -12 -31 -4 -58 10 -36 6 10 9 6 9 -13 0 -16 5 -28
10 -28 7 0 9 24 7 67 -3 43 0 78 9 99 18 43 18 84 0 84 -8 0 -16 -7 -19 -15z"/>
<path d="M5842 4815 c-17 -14 -35 -25 -40 -25 -6 0 -15 -7 -20 -16 -8 -15 -10
-15 -15 0 -5 13 -11 15 -26 7 -29 -16 -20 -47 13 -43 28 3 33 -6 14 -27 -11
-11 -9 -11 7 -3 11 6 28 13 38 16 11 3 17 15 17 34 0 28 3 30 50 36 56 7 63
17 25 34 -33 15 -29 16 -63 -13z"/>
<path d="M4720 4796 c-8 -21 -6 -39 5 -72 8 -25 15 -61 15 -80 0 -21 4 -33 10
-29 6 3 10 -1 10 -9 0 -9 -4 -16 -10 -16 -5 0 -10 -9 -10 -20 0 -25 17 -26 24
-2 3 9 4 63 3 119 -2 81 -6 106 -19 119 -16 16 -18 16 -28 -10z"/>
<path d="M4600 4794 c0 -9 5 -14 12 -12 18 6 21 28 4 28 -9 0 -16 -7 -16 -16z"/>
<path d="M4090 4790 c0 -5 5 -10 10 -10 6 0 10 5 10 10 0 6 -4 10 -10 10 -5 0
-10 -4 -10 -10z"/>
<path d="M5871 4766 c-15 -18 -10 -29 12 -24 9 2 12 9 8 21 -6 17 -8 18 -20 3z"/>
<path d="M6054 4771 c4 -5 0 -11 -6 -14 -8 -2 -1 -10 15 -17 34 -17 46 -6 22
20 -18 20 -41 28 -31 11z"/>
<path d="M4943 4735 c-1 -19 2 -33 6 -30 4 2 3 -11 -3 -30 -6 -18 -13 -32 -17
-29 -4 2 -12 -3 -18 -10 -9 -10 -9 -16 -1 -21 6 -4 9 -14 6 -22 -10 -26 14 -3
31 30 9 18 18 26 20 19 7 -18 23 -4 23 19 0 10 5 19 11 19 6 0 4 7 -4 15 -8 8
-21 28 -29 45 -17 39 -24 38 -25 -5z"/>
<path d="M6015 4693 c11 -7 22 -13 27 -13 4 0 8 -7 8 -15 0 -17 26 -20 35 -4
12 18 -25 48 -57 47 -28 -1 -29 -2 -13 -15z"/>
<path d="M3720 4685 c7 -8 27 -15 44 -15 29 1 30 1 12 15 -11 8 -31 15 -44 15
-21 0 -22 -2 -12 -15z"/>
<path d="M5795 4691 c-5 -8 44 -51 59 -51 3 0 10 10 17 21 9 17 8 23 -2 30
-19 12 -66 11 -74 0z"/>
<path d="M5932 4689 c2 -6 8 -10 13 -10 5 0 11 4 13 10 2 6 -4 11 -13 11 -9 0
-15 -5 -13 -11z"/>
<path d="M3835 4670 c3 -5 8 -10 11 -10 2 0 4 5 4 10 0 6 -5 10 -11 10 -5 0
-7 -4 -4 -10z"/>
<path d="M5100 4653 c1 -18 18 -35 24 -24 4 6 4 16 1 21 -7 12 -25 13 -25 3z"/>
<path d="M5950 4653 c0 -5 9 -14 20 -21 11 -7 20 -8 20 -2 0 5 -9 14 -20 20
-11 6 -20 7 -20 3z"/>
<path d="M5870 4631 c0 -6 3 -12 8 -12 36 -6 52 -5 49 5 -5 14 -57 21 -57 7z"/>
<path d="M5091 4595 c-1 -22 -19 -45 -34 -45 -4 0 -5 6 -2 13 4 6 0 4 -9 -7
-10 -12 -13 -30 -10 -50 4 -24 3 -27 -5 -16 -8 11 -11 11 -11 2 0 -7 6 -15 14
-18 8 -3 12 -13 11 -22 -15 -77 -15 -85 0 -72 12 10 15 9 15 -6 0 -11 -4 -26
-9 -34 -6 -8 -7 -18 -4 -23 8 -13 61 88 61 117 0 15 -5 23 -11 19 -6 -4 -8 4
-5 21 3 14 2 29 -3 31 -4 3 -3 21 2 41 6 19 8 43 6 52 -4 13 -5 13 -6 -3z"/>
<path d="M5224 4596 c-10 -8 -16 -17 -13 -20 3 -3 14 1 25 8 10 8 16 17 13 20
-3 3 -14 -1 -25 -8z"/>
<path d="M5266 4593 c-6 -14 -5 -15 5 -6 7 7 10 15 7 18 -3 3 -9 -2 -12 -12z"/>
<path d="M5900 4595 c-14 -16 -3 -20 19 -6 8 5 9 11 3 15 -5 3 -15 -1 -22 -9z"/>
<path d="M4875 4591 c-3 -5 -1 -12 5 -16 5 -3 10 1 10 9 0 18 -6 21 -15 7z"/>
<path d="M6030 4581 c0 -5 7 -12 16 -15 24 -9 28 -7 14 9 -14 17 -30 20 -30 6z"/>
<path d="M4635 4550 c-4 -17 -5 -34 -2 -36 2 -3 7 10 11 27 8 42 0 50 -9 9z"/>
<path d="M5154 4553 c-4 -16 -12 -34 -18 -42 -9 -12 -8 -12 12 0 14 9 22 24
22 41 0 36 -8 36 -16 1z"/>
<path d="M5931 4561 c-28 -21 -21 -41 15 -41 39 0 28 -23 -21 -44 -25 -10 -55
-32 -67 -49 -12 -17 -17 -27 -11 -24 7 4 14 3 18 -3 3 -5 -5 -14 -19 -20 -14
-5 -26 -14 -26 -19 0 -5 -9 -13 -21 -16 -11 -4 -18 -9 -15 -12 2 -3 21 0 41 7
45 15 53 8 24 -18 l-22 -21 26 -6 c14 -4 28 -14 31 -22 5 -12 9 -13 20 -4 14
12 36 7 73 -17 18 -11 21 -18 12 -33 -7 -15 -6 -19 6 -19 8 0 15 -4 15 -10 0
-5 -13 -10 -30 -10 -16 0 -30 -4 -30 -10 0 -5 5 -10 10 -10 6 0 10 -5 10 -11
0 -6 -8 -9 -17 -7 -9 2 -16 8 -16 13 0 6 -7 15 -16 22 -9 7 -11 13 -6 13 6 0
3 5 -5 10 -23 15 -66 12 -80 -5 -7 -8 -17 -15 -22 -15 -6 0 -6 6 1 14 10 12 2
15 -52 21 -43 5 -72 3 -87 -5 -12 -6 -29 -9 -37 -6 -12 5 -13 4 -5 -7 7 -8 9
-16 7 -19 -3 -3 17 -4 44 -3 32 2 48 -1 44 -8 -4 -6 3 -8 20 -4 22 6 24 4 20
-13 -5 -17 0 -20 28 -20 29 -1 32 -3 19 -13 -20 -15 -19 -35 0 -47 13 -9 13
-11 0 -20 -12 -8 -12 -10 -1 -10 11 0 11 -3 1 -15 -11 -13 -10 -18 6 -30 15
-11 16 -14 4 -15 -13 0 -13 -1 0 -10 13 -8 12 -10 -2 -10 -10 0 -18 -4 -18 -9
0 -4 12 -7 28 -5 27 4 27 4 2 -5 -14 -4 -38 -6 -54 -3 -20 4 -27 2 -22 -6 4
-7 19 -12 33 -12 36 0 23 -10 -18 -15 -21 -3 -29 -1 -21 4 10 6 7 10 -11 13
-31 6 -44 -1 -44 -24 0 -15 10 -18 61 -18 49 0 67 -5 91 -24 l29 -23 -23 -8
c-18 -6 -21 -9 -10 -16 11 -7 10 -9 -3 -9 -10 0 -18 -4 -18 -10 0 -5 8 -14 18
-19 11 -7 12 -10 4 -11 -8 0 -27 9 -42 20 -16 11 -35 17 -43 14 -9 -3 -23 -1
-33 4 -16 9 -84 -5 -100 -21 -7 -7 17 -11 44 -8 6 1 12 -3 12 -9 0 -5 -7 -10
-15 -10 -8 0 -15 -4 -15 -9 0 -6 17 -7 38 -5 29 4 34 3 22 -5 -12 -9 -8 -11
20 -9 24 2 35 8 34 18 -1 10 7 15 22 15 36 -2 40 -13 14 -35 -23 -20 -23 -21
-4 -35 10 -8 15 -15 10 -15 -5 0 -1 -9 9 -20 17 -19 16 -19 -21 -14 -37 4 -38
4 -14 -8 14 -7 31 -20 38 -30 9 -13 18 -15 35 -9 12 5 21 14 19 21 -1 6 5 18
14 27 20 20 34 3 28 -33 -2 -12 0 -26 6 -29 5 -3 10 -11 10 -16 0 -6 -5 -7
-12 -3 -8 5 -9 2 -5 -9 9 -23 -1 -21 -38 7 -22 17 -36 22 -46 15 -8 -5 -9 -9
-3 -9 13 0 28 -30 19 -38 -2 -3 -11 1 -20 8 -8 7 -22 9 -31 6 -15 -6 -15 -8 1
-26 20 -23 12 -25 -33 -9 -18 6 -29 15 -26 20 3 5 -15 9 -40 9 -39 0 -45 3
-43 20 1 11 9 23 19 26 10 3 18 10 18 16 0 7 -5 6 -14 -1 -11 -9 -15 -9 -20 1
-5 10 -7 10 -12 1 -3 -7 -22 -13 -41 -13 -20 0 -34 -3 -30 -6 3 -3 -3 -14 -14
-25 -15 -15 -33 -19 -81 -19 -39 0 -58 -4 -50 -9 8 -4 13 -12 13 -17 -1 -5 10
-10 25 -12 29 -4 57 -25 47 -36 -4 -3 -34 -6 -67 -6 -43 0 -57 -3 -46 -10 8
-5 48 -10 88 -10 52 0 72 -4 72 -13 0 -10 23 -13 93 -13 80 0 86 1 47 9 -25 5
-56 11 -69 13 -13 3 -21 7 -18 10 18 18 251 -37 403 -96 68 -26 74 -27 69 -10
-5 15 -8 205 -5 285 1 31 22 98 35 115 28 35 41 192 23 280 -6 30 -13 71 -15
90 -3 19 -9 40 -12 45 -4 6 -15 37 -25 70 -10 33 -22 74 -27 91 -13 43 -11 66
6 91 14 20 12 23 -20 52 -20 17 -43 31 -53 32 -18 1 -19 0 36 20 l23 9 -34 35
c-39 40 -52 42 -86 16z m-11 -251 c0 -5 -7 -10 -15 -10 -8 0 -15 5 -15 10 0 6
7 10 15 10 8 0 15 -4 15 -10z m115 -170 c3 -5 -1 -10 -9 -10 -8 0 -18 5 -21
10 -3 6 1 10 9 10 8 0 18 -4 21 -10z m-2 -47 c-7 -2 -21 -2 -30 0 -10 3 -4 5
12 5 17 0 24 -2 18 -5z m-56 -119 c-3 -3 -12 -4 -19 -1 -8 3 -5 6 6 6 11 1 17
-2 13 -5z m-67 -284 c0 -5 -8 -10 -17 -10 -15 0 -16 2 -3 10 19 12 20 12 20 0z
m-382 -177 c-16 -2 -40 -2 -55 0 -16 2 -3 4 27 4 30 0 43 -2 28 -4z"/>
<path d="M5327 4563 c-4 -3 -7 -11 -7 -17 0 -6 5 -5 12 2 6 6 9 14 7 17 -3 3
-9 2 -12 -2z"/>
<path d="M5709 4549 c-14 -26 -5 -36 17 -18 16 13 17 12 12 -9 -4 -14 -2 -20
5 -15 6 4 8 -1 5 -14 -4 -16 -1 -20 11 -18 9 2 17 4 19 5 3 3 19 7 32 9 6 0
10 6 10 12 0 7 -10 9 -25 7 -13 -3 -22 -1 -19 3 3 5 0 9 -5 9 -6 0 -11 6 -11
13 0 7 -9 18 -20 24 -17 11 -21 10 -31 -8z"/>
<path d="M4870 4547 c-8 -7 -21 -22 -27 -34 -11 -18 -10 -25 5 -39 16 -17 17
-17 20 3 2 12 10 27 18 33 14 13 20 50 7 50 -5 0 -15 -6 -23 -13z"/>
<path d="M4405 4540 c-11 -18 19 -110 37 -110 14 0 9 34 -11 72 -11 19 -17 39
-14 42 4 3 4 6 0 6 -3 0 -8 -4 -12 -10z"/>
<path d="M5368 4526 c-10 -7 -18 -17 -18 -21 0 -4 7 -2 15 5 10 8 15 9 15 2 0
-6 7 -9 15 -6 18 7 20 34 3 34 -7 0 -21 -7 -30 -14z"/>
<path d="M4490 4513 c0 -13 5 -23 10 -23 13 0 13 11 0 30 -8 12 -10 11 -10 -7z"/>
<path d="M5279 4513 c-13 -16 -12 -17 4 -4 16 13 21 21 13 21 -2 0 -10 -8 -17
-17z"/>
<path d="M4210 4505 c0 -8 4 -15 10 -15 5 0 7 7 4 15 -4 8 -8 15 -10 15 -2 0
-4 -7 -4 -15z"/>
<path d="M4241 4453 c11 -34 19 -42 19 -20 0 7 -7 22 -15 33 -13 17 -14 16 -4
-13z"/>
<path d="M6051 4477 c2 -1 12 -9 22 -16 14 -12 17 -11 17 3 0 10 -8 16 -22 16
-12 0 -19 -1 -17 -3z"/>
<path d="M4650 4460 c0 -5 5 -10 11 -10 5 0 7 5 4 10 -3 6 -8 10 -11 10 -2 0
-4 -4 -4 -10z"/>
<path d="M5530 4455 c-7 -9 -8 -15 -2 -15 5 0 12 7 16 15 3 8 4 15 2 15 -2 0
-9 -7 -16 -15z"/>
<path d="M5780 4425 c-5 -13 -17 -28 -27 -33 -29 -17 -10 -23 21 -7 35 19 37
19 30 0 -4 -8 -2 -15 3 -15 18 0 22 12 12 31 -7 14 -7 19 2 17 7 -2 14 4 16
13 6 28 -47 21 -57 -6z"/>
<path d="M5740 4430 c0 -6 -6 -10 -12 -9 -23 3 -38 -1 -38 -10 0 -9 43 -7 59
4 14 8 14 25 1 25 -5 0 -10 -5 -10 -10z"/>
<path d="M5072 4318 c-7 -7 -18 -13 -25 -13 -6 0 -13 -8 -15 -17 -2 -10 1 -18
7 -18 6 0 11 6 11 13 0 8 3 8 9 -2 10 -15 41 -8 41 10 0 6 -7 9 -15 5 -18 -7
-20 5 -3 22 7 7 10 12 7 12 -3 0 -11 -6 -17 -12z"/>
<path d="M4765 4190 c3 -5 8 -10 11 -10 2 0 4 5 4 10 0 6 -5 10 -11 10 -5 0
-7 -4 -4 -10z"/>
<path d="M5189 4181 c-37 -7 -81 -31 -158 -85 -30 -22 -51 -48 -69 -86 -14
-30 -26 -59 -27 -65 -5 -33 -26 -64 -40 -59 -19 8 -19 7 9 -52 36 -75 40 -94
22 -94 -9 0 -16 7 -16 15 0 8 -4 15 -10 15 -5 0 -10 5 -10 11 0 6 7 9 14 6 10
-4 13 -1 9 8 -3 8 -9 12 -14 9 -5 -3 -9 1 -9 8 -1 8 -4 7 -10 -4 -9 -14 -13
-13 -40 14 -17 16 -30 36 -30 44 0 8 -4 14 -9 14 -14 0 9 -61 25 -67 8 -3 14
-9 14 -14 0 -4 -8 -5 -17 -2 -15 6 -16 4 -6 -8 10 -13 9 -19 -7 -36 -10 -12
-16 -23 -13 -27 3 -3 1 -12 -6 -20 -11 -13 -8 -67 5 -87 6 -11 -18 -49 -31
-49 -6 0 -10 14 -10 32 0 19 -6 33 -15 35 -10 3 -11 2 -3 -4 14 -10 5 -63 -12
-63 -6 0 -20 -9 -29 -19 -15 -17 -15 -20 -3 -28 20 -11 24 -33 10 -58 -6 -11
-13 -39 -16 -63 -6 -57 -23 -74 -37 -38 -5 15 -10 33 -10 41 0 31 -15 20 -16
-12 -2 -46 -14 -56 -49 -43 -38 14 -40 8 -10 -29 19 -22 35 -31 57 -31 46 0
106 38 118 75 6 17 39 60 75 95 43 42 65 72 65 88 0 27 38 82 57 82 8 0 11 5
7 12 -4 6 1 17 11 25 18 13 18 13 -1 14 -11 0 -14 3 -6 6 10 4 8 8 -5 18 -10
7 -14 17 -10 21 4 5 12 2 17 -6 10 -17 17 -13 22 15 1 11 9 25 17 31 11 9 11
12 -5 18 -18 8 -18 8 1 16 17 7 17 9 3 9 -10 1 -18 5 -18 10 0 5 8 7 19 4 28
-7 33 22 7 44 -14 12 -22 30 -21 49 l0 29 77 0 c43 0 78 3 78 8 0 4 -4 7 -10
7 -5 0 -10 12 -10 26 0 22 3 24 14 15 8 -7 17 -22 20 -35 8 -33 46 -40 118
-20 50 14 64 24 85 55 14 21 22 43 18 48 -3 6 1 11 9 11 10 0 13 -6 10 -15
-12 -30 5 -14 37 38 19 28 40 57 49 64 23 18 5 27 -73 35 -88 8 -160 8 -208
-1z m-19 -77 c0 -11 -34 -64 -41 -64 -19 0 -39 13 -39 26 0 16 39 44 62 44 10
0 18 -3 18 -6z m-280 -353 c0 -5 -7 -11 -14 -14 -10 -4 -13 -1 -9 9 6 15 23
19 23 5z"/>
<path d="M5510 4163 c0 -10 76 -10 86 0 4 4 -14 7 -39 7 -26 0 -47 -3 -47 -7z"/>
<path d="M3936 4109 c-12 -10 -17 -21 -13 -26 5 -4 13 0 18 10 12 21 29 22 29
1 0 -13 3 -13 29 2 27 16 45 15 96 -3 6 -2 25 -6 43 -9 42 -8 47 -18 25 -54
-15 -26 -22 -30 -45 -24 -24 5 -28 2 -28 -17 0 -31 48 -98 76 -105 46 -12 96
34 114 106 9 37 13 42 21 27 12 -20 29 -23 28 -4 0 22 -80 77 -133 92 -28 8
-93 16 -145 18 -77 2 -98 0 -115 -14z"/>
<path d="M4774 4078 c-4 -7 -3 -8 4 -4 7 4 12 2 12 -3 0 -6 4 -11 10 -11 5 0
7 7 4 15 -7 18 -20 19 -30 3z"/>
<path d="M3930 4057 c0 -27 45 -109 75 -137 27 -25 27 -25 -4 24 -19 30 -31
63 -31 84 0 22 -4 31 -11 26 -6 -3 -15 0 -20 7 -7 11 -9 10 -9 -4z"/>
<path d="M4805 4040 c-3 -5 -1 -10 4 -10 6 0 11 5 11 10 0 6 -2 10 -4 10 -3 0
-8 -4 -11 -10z"/>
<path d="M4340 3939 c0 -5 5 -7 10 -4 6 3 10 8 10 11 0 2 -4 4 -10 4 -5 0 -10
-5 -10 -11z"/>
<path d="M5766 3844 c-9 -25 -7 -36 7 -31 6 2 20 0 30 -5 22 -11 22 5 0 32
-21 24 -29 25 -37 4z"/>
<path d="M4366 3765 c4 -8 7 -15 9 -15 2 0 5 7 9 15 3 9 0 15 -9 15 -9 0 -12
-6 -9 -15z"/>
<path d="M5524 3708 c-4 -7 -3 -8 5 -4 6 4 23 0 37 -9 28 -18 52 -11 33 11
-14 17 -65 19 -75 2z"/>
<path d="M4566 3675 c4 -8 10 -15 15 -15 4 0 6 7 3 15 -4 8 -10 15 -15 15 -4
0 -6 -7 -3 -15z"/>
<path d="M4580 3642 c0 -14 11 -21 26 -15 21 8 17 23 -6 23 -11 0 -20 -4 -20
-8z"/>
<path d="M5615 3613 c-25 -14 -27 -18 -11 -21 10 -2 21 0 25 5 3 6 15 15 26
21 14 8 15 11 5 11 -8 0 -28 -7 -45 -16z"/>
<path d="M4930 3605 c0 -9 6 -12 15 -9 8 4 12 10 9 15 -8 14 -24 10 -24 -6z"/>
<path d="M4485 3540 c-3 -5 -2 -10 4 -10 5 0 13 5 16 10 3 6 2 10 -4 10 -5 0
-13 -4 -16 -10z"/>
<path d="M4572 3540 c6 -20 37 -25 52 -9 8 9 7 10 -8 5 -10 -3 -25 -1 -34 6
-13 11 -14 10 -10 -2z"/>
<path d="M5154 3531 c-1 -9 -3 -23 -5 -31 -3 -9 2 -14 11 -11 8 2 71 6 139 9
141 6 142 18 1 24 -53 2 -100 7 -105 10 -28 15 -41 15 -41 -1z"/>
<path d="M4407 3523 c-13 -21 14 -61 44 -67 16 -3 39 -15 51 -25 11 -11 24
-18 29 -16 4 3 15 -2 23 -11 15 -14 16 -14 16 4 0 31 -34 66 -66 68 -68 3 -72
4 -81 31 -6 16 -12 23 -16 16z"/>
<path d="M5092 3500 c-12 -11 -26 -20 -32 -20 -6 0 -8 -4 -5 -10 4 -6 -1 -7
-11 -3 -11 4 -15 2 -13 -6 6 -16 5 -16 57 -2 25 7 42 18 42 26 0 8 -5 15 -11
15 -5 0 -7 5 -4 10 10 16 1 12 -23 -10z"/>
<path d="M5360 3440 c0 -5 5 -10 10 -10 6 0 10 5 10 10 0 6 -4 10 -10 10 -5 0
-10 -4 -10 -10z"/>
<path d="M5252 3423 c-69 -7 -37 -23 44 -23 56 0 75 3 72 13 -5 13 -46 17
-116 10z"/>
<path d="M5483 3413 c9 -2 23 -2 30 0 6 3 -1 5 -18 5 -16 0 -22 -2 -12 -5z"/>
<path d="M5166 2555 c-7 -27 11 -76 30 -82 17 -6 22 29 10 67 -14 42 -32 49
-40 15z"/>
<path d="M6549 2323 c-24 -37 -59 -78 -78 -90 l-33 -23 24 -9 c35 -13 270 -24
286 -13 10 7 10 19 1 59 -11 46 -10 53 9 81 25 34 22 37 -54 47 -27 3 -63 8
-80 11 -29 4 -34 0 -75 -63z"/>
<path d="M5168 2303 c-23 -26 -68 -119 -68 -141 0 -21 -55 -112 -68 -112 -4 0
-23 -16 -42 -35 -19 -19 -40 -35 -46 -35 -20 0 -114 -84 -114 -101 0 -13 80
-8 125 9 17 6 69 23 116 36 100 30 124 50 115 98 -22 104 -22 103 33 156 28
27 51 52 51 55 0 10 -71 87 -80 87 -4 0 -14 -8 -22 -17z"/>
<path d="M6805 1733 c-11 -3 -26 -14 -33 -24 -18 -26 -62 -35 -257 -53 -93 -9
-206 -21 -250 -26 -44 -6 -106 -11 -138 -12 -32 -1 -64 -6 -71 -12 -7 -6 -19
-33 -25 -59 -20 -85 -49 -132 -114 -187 -82 -70 -163 -107 -265 -122 -71 -10
-94 -9 -162 6 -60 13 -85 14 -100 6 -11 -6 -26 -10 -33 -9 -6 2 -46 -3 -87
-11 -53 -9 -127 -11 -258 -7 -175 5 -189 4 -325 -24 -162 -33 -212 -35 -286
-13 -49 14 -60 14 -164 -6 -172 -32 -213 -50 -149 -64 62 -14 350 -18 452 -6
58 6 220 16 360 20 178 6 291 15 375 30 66 11 190 29 275 40 327 41 388 57
455 120 39 36 156 92 260 124 28 8 100 31 161 50 61 19 153 43 205 55 112 24
314 87 346 108 13 9 23 23 23 32 0 17 -16 22 -155 46 -11 2 -29 1 -40 -2z"/>
</g>
</svg>
