<?xml version="1.0" standalone="no"?>
<!DOCTYPE svg PUBLIC "-//W3C//DTD SVG 20010904//EN"
 "http://www.w3.org/TR/2001/REC-SVG-20010904/DTD/svg10.dtd">
<svg version="1.0" xmlns="http://www.w3.org/2000/svg"
 width="280.000000pt" height="249.000000pt" viewBox="0 0 280.000000 249.000000"
 preserveAspectRatio="xMidYMid meet">

<g transform="translate(0.000000,249.000000) scale(0.100000,-0.100000)"
fill="#000000" stroke="none">
<path d="M1361 1759 c-71 -21 -133 -73 -170 -144 l-21 -40 -73 -5 -72 -5 -5
-50 c-5 -39 -24 -81 -93 -198 -48 -81 -87 -152 -87 -156 0 -4 9 -16 20 -26 19
-17 20 -33 22 -289 l3 -271 555 0 555 0 3 271 c2 256 3 272 22 289 11 10 20
22 20 26 0 4 -39 75 -87 156 -70 118 -89 158 -93 198 l-5 50 -72 3 -72 3 -23
46 c-58 116 -200 178 -327 142z m153 -41 c55 -16 138 -99 154 -154 28 -94 8
-169 -63 -239 -101 -102 -229 -102 -330 0 -102 101 -102 229 0 330 70 71 145
90 239 63z m-354 -208 c0 -17 -7 -20 -50 -20 -43 0 -50 3 -50 20 0 17 7 20 50
20 43 0 50 -3 50 -20z m660 0 c0 -17 -7 -20 -50 -20 -43 0 -50 3 -50 20 0 17
7 20 50 20 43 0 50 -3 50 -20z m-690 -66 c0 -3 -15 -56 -34 -118 -19 -61 -37
-123 -40 -138 -11 -48 -84 -72 -141 -46 -37 17 -44 0 82 216 54 91 54 92 94
92 21 0 39 -3 39 -6z m781 -134 c43 -74 79 -139 79 -146 0 -14 -44 -34 -76
-34 -40 0 -83 27 -90 58 -3 15 -21 77 -40 138 -19 62 -34 115 -34 118 0 4 18
6 41 4 l41 -3 79 -135z m-656 -27 c44 -41 54 -68 39 -108 -9 -23 -57 -45 -98
-45 -35 0 -96 40 -96 63 0 7 14 60 32 119 l32 107 23 -47 c13 -26 44 -66 68
-89z m494 25 c19 -62 30 -116 26 -128 -16 -51 -114 -66 -164 -24 -46 39 -43
76 12 125 24 21 54 60 67 88 14 27 25 49 26 48 1 -1 16 -50 33 -109z m-259
-92 c45 9 50 9 50 -7 0 -47 -42 -79 -104 -79 -42 0 -96 41 -96 74 0 22 2 22
50 12 34 -7 66 -7 100 0z m-380 -98 c18 -13 49 -23 82 -26 45 -3 59 0 91 22
l38 26 29 -22 c18 -13 49 -23 82 -26 45 -3 59 0 91 22 l38 26 29 -22 c18 -13
49 -23 82 -26 45 -3 59 0 91 22 l38 26 29 -21 c17 -13 50 -24 79 -27 l51 -5 0
-238 0 -239 -310 0 -310 0 -2 218 -3 217 -175 0 -175 0 -3 -217 -2 -218 -30 0
-30 0 0 240 0 240 44 0 c29 0 54 8 77 24 19 13 35 25 37 25 2 1 16 -9 32 -21z
m2 -137 c-30 -26 -33 -33 -30 -77 l3 -49 95 0 95 0 3 49 c3 44 0 51 -30 77
l-33 28 43 1 42 0 0 -200 0 -200 -140 0 -140 0 0 200 0 200 63 0 62 -1 -33
-28z m83 -1 c3 -5 -3 -10 -15 -10 -12 0 -18 5 -15 10 3 6 10 10 15 10 5 0 12
-4 15 -10z m45 -70 c0 -18 -7 -20 -60 -20 -53 0 -60 2 -60 20 0 18 7 20 60 20
53 0 60 -2 60 -20z"/>
<path d="M1324 1657 c-10 -28 0 -82 16 -82 11 0 15 12 15 44 0 44 -19 68 -31
38z"/>
<path d="M1384 1657 c-10 -28 0 -82 16 -82 11 0 15 12 15 44 0 44 -19 68 -31
38z"/>
<path d="M1444 1657 c-10 -28 0 -82 16 -82 11 0 15 12 15 44 0 44 -19 68 -31
38z"/>
<path d="M1247 1543 c-23 -22 10 -143 53 -195 l31 -38 79 0 c75 0 79 1 103 30
18 21 35 30 55 30 36 0 72 37 72 73 0 18 -10 34 -29 48 -16 12 -32 30 -34 40
-5 18 -17 19 -164 19 -88 0 -163 -3 -166 -7z m293 -47 c0 -23 -28 -95 -47
-121 -16 -22 -25 -24 -83 -24 -73 0 -87 11 -115 90 -26 71 -29 69 115 69 104
0 130 -3 130 -14z m58 -54 c2 -13 -3 -25 -13 -28 -21 -9 -24 -4 -18 29 6 32
26 31 31 -1z"/>
<path d="M1543 1060 c-46 -19 -41 -96 8 -132 23 -17 30 -18 50 -8 31 17 39 29
39 63 0 18 -11 39 -29 58 -32 31 -35 32 -68 19z m53 -67 c9 -33 -8 -49 -30
-28 -16 16 -21 46 -10 58 11 11 34 -5 40 -30z"/>
<path d="M1714 1060 c-51 -20 -70 -94 -34 -130 27 -27 46 -25 81 9 44 44 37
95 -16 123 -5 3 -20 2 -31 -2z m36 -60 c0 -22 -28 -53 -41 -45 -14 9 -11 42 7
59 18 19 34 12 34 -14z"/>
<path d="M1416 918 c-20 -28 -20 -41 -1 -78 23 -44 86 -57 113 -22 19 25 14
58 -14 91 -32 38 -75 42 -98 9z m74 -39 c16 -30 6 -53 -19 -40 -21 12 -34 38
-25 52 9 16 33 10 44 -12z"/>
<path d="M1799 927 c-37 -28 -49 -80 -26 -111 29 -40 107 -7 122 51 13 55 -51
95 -96 60z m56 -37 c10 -16 -14 -50 -35 -50 -22 0 -25 12 -10 41 11 20 35 25
45 9z"/>
<path d="M1602 893 c-15 -6 -42 -56 -42 -79 0 -9 -16 -34 -35 -55 -39 -44 -44
-76 -16 -110 18 -22 20 -22 74 -10 52 13 89 12 163 -4 70 -15 89 69 29 129
-22 22 -35 45 -35 61 0 40 -42 75 -87 74 -21 0 -44 -3 -51 -6z m86 -45 c5 -7
13 -28 17 -45 3 -18 20 -45 36 -60 16 -16 29 -38 29 -52 0 -21 -3 -22 -27 -15
-30 9 -141 11 -183 4 -38 -8 -36 21 5 63 19 20 35 46 35 57 0 37 19 60 49 60
16 0 33 -6 39 -12z"/>
<path d="M1045 800 c-4 -7 -3 -16 3 -22 14 -14 47 -6 47 12 0 18 -40 26 -50
10z"/>
</g>
</svg>
