<?xml version="1.0" standalone="no"?>
<!DOCTYPE svg PUBLIC "-//W3C//DTD SVG 20010904//EN"
 "http://www.w3.org/TR/2001/REC-SVG-20010904/DTD/svg10.dtd">
<svg version="1.0" xmlns="http://www.w3.org/2000/svg"
 width="243.000000pt" height="217.000000pt" viewBox="0 0 243.000000 217.000000"
 preserveAspectRatio="xMidYMid meet">
<metadata>
Created by potrace 1.16, written by Peter Selinger 2001-2019
</metadata>
<g transform="translate(0.000000,217.000000) scale(0.100000,-0.100000)"
fill="#000000" stroke="none">
<path d="M690 1600 c-16 -16 -20 -33 -20 -80 0 -54 -2 -60 -20 -60 -33 0 -75
-26 -88 -55 -17 -37 -17 -893 0 -930 25 -55 23 -55 588 -55 565 0 563 0 588
55 19 41 17 897 -2 934 -15 28 -53 51 -86 51 -18 0 -20 7 -20 60 0 75 -20 100
-80 100 -60 0 -80 -25 -80 -100 l0 -60 -320 0 -320 0 0 60 c0 75 -20 100 -80
100 -27 0 -47 -7 -60 -20z m95 -140 l0 -115 -35 0 -35 0 -3 104 c-1 58 0 111
3 118 3 9 17 13 37 11 l33 -3 0 -115z m800 0 l0 -115 -35 0 -35 0 -3 104 c-1
58 0 111 3 118 3 9 17 13 37 11 l33 -3 0 -115z m-915 -80 c0 -53 27 -80 80
-80 27 0 47 7 60 20 13 13 20 33 20 60 l0 40 320 0 320 0 0 -40 c0 -27 7 -47
20 -60 13 -13 33 -20 60 -20 27 0 47 7 60 20 13 13 20 33 20 60 0 33 3 40 20
40 11 0 29 -9 40 -20 18 -18 20 -33 20 -140 l0 -120 -560 0 -560 0 0 120 c0
107 2 122 20 140 11 11 29 20 40 20 17 0 20 -7 20 -40z m1040 -580 c0 -287 -1
-301 -20 -320 -19 -19 -33 -20 -540 -20 -507 0 -521 1 -540 20 -19 19 -20 33
-20 320 l0 300 560 0 560 0 0 -300z"/>
<path d="M914 1347 c-3 -8 -4 -43 -2 -78 l3 -64 235 0 235 0 0 75 0 75 -233 3
c-190 2 -233 0 -238 -11z m436 -67 l0 -40 -200 0 -200 0 0 40 0 40 200 0 200
0 0 -40z"/>
<path d="M674 1027 c-3 -8 -4 -39 -2 -68 l3 -54 75 0 75 0 0 65 0 65 -73 3
c-55 2 -74 0 -78 -11z"/>
<path d="M934 1027 c-3 -8 -4 -39 -2 -68 l3 -54 75 0 75 0 0 65 0 65 -73 3
c-55 2 -74 0 -78 -11z"/>
<path d="M1214 1027 c-3 -8 -4 -39 -2 -68 l3 -54 75 0 75 0 0 65 0 65 -73 3
c-55 2 -74 0 -78 -11z"/>
<path d="M1474 1027 c-3 -8 -4 -39 -2 -68 l3 -54 75 0 75 0 0 65 0 65 -73 3
c-55 2 -74 0 -78 -11z"/>
<path d="M674 827 c-3 -8 -4 -39 -2 -68 l3 -54 75 0 75 0 0 65 0 65 -73 3
c-55 2 -74 0 -78 -11z"/>
<path d="M934 827 c-3 -8 -4 -39 -2 -68 l3 -54 75 0 75 0 0 65 0 65 -73 3
c-55 2 -74 0 -78 -11z"/>
<path d="M1214 827 c-3 -8 -4 -39 -2 -68 l3 -54 75 0 75 0 0 65 0 65 -73 3
c-55 2 -74 0 -78 -11z"/>
<path d="M1474 827 c-3 -8 -4 -39 -2 -68 l3 -54 75 0 75 0 0 65 0 65 -73 3
c-55 2 -74 0 -78 -11z"/>
<path d="M674 627 c-3 -8 -4 -39 -2 -68 l3 -54 75 0 75 0 0 65 0 65 -73 3
c-55 2 -74 0 -78 -11z"/>
<path d="M934 627 c-3 -8 -4 -39 -2 -68 l3 -54 75 0 75 0 0 65 0 65 -73 3
c-55 2 -74 0 -78 -11z"/>
</g>
</svg>
